<svg viewBox="-68 0 512 512.00039" xmlns="http://www.w3.org/2000/svg"><path d="m183.023438 512c-17.582032 0-34.839844-5.230469-51.589844-15.675781-26.203125-16.332031-43.964844-41.410157-52.21875-54.902344-2.160156-3.535156-1.046875-8.152344 2.484375-10.3125 3.535156-2.160156 8.148437-1.046875 10.3125 2.484375 11.78125 19.261719 55.050781 80.363281 117.546875 58.75 31.5-13.128906 51.113281-44.621094 49.984375-80.300781-.785157-24.773438-9.816407-45.535157-26.84375-61.699219-17.390625-16.507812-23.21875-36.765625-17.320313-60.203125 3.609375-14.351563 12.628906-24.007813 22.179688-34.226563 11.863281-12.703124 25.3125-27.097656 34.296875-55.320312 13.925781-43.242188-9.925781-83.082031-39.433594-98.625-28.078125-14.792969-59.589844-15.566406-93.652344-2.308594-61.292969 23.859375-94.671875 73.988282-96.53125 144.976563-1.363281 51.964843 10.285157 104.652343 35.613281 161.074219 1.695313 3.777343.007813 8.214843-3.773437 9.914062-3.777344 1.695312-8.214844.007812-9.910156-3.769531-26.265625-58.523438-38.34375-113.347657-36.921875-167.609375.976562-37.34375 10.214844-69.792969 27.453125-96.445313 18.070312-27.941406 44.527343-48.839843 78.628906-62.117187 38.296875-14.90625 73.988281-13.894532 106.085937 3.015625 34.910157 18.386719 63.152344 65.457031 46.726563 116.46875-10 31.421875-25.316406 47.8125-37.621094 60.984375-8.898437 9.523437-15.929687 17.050781-18.59375 27.648437-4.605469 18.296875-.441406 32.808594 13.101563 45.667969 19.992187 18.980469 30.59375 43.238281 31.507812 72.101562 1.332032 42.050782-23.222656 100.429688-91.511718 100.429688zm0 0"/><path d="m323.425781 123.652344c-30.34375 0-55.03125-24.683594-55.03125-55.03125 0-30.34375 24.6875-55.027344 55.03125-55.027344 21.820313 0 41.597657 12.90625 50.390625 32.875 1.667969 3.792969-.050781 8.21875-3.84375 9.886719-3.792968 1.667969-8.214844-.050781-9.882812-3.84375-6.398438-14.53125-20.789063-23.921875-36.660156-23.921875-22.074219 0-40.035157 17.957031-40.035157 40.03125 0 22.074218 17.960938 40.035156 40.035157 40.035156 18.152343 0 34.070312-12.238281 38.703124-29.761719 1.058594-4.003906 5.164063-6.394531 9.167969-5.335937 4.003907 1.0625 6.390625 5.164062 5.332031 9.167968-6.375 24.097657-28.253906 40.925782-53.207031 40.925782zm0 0"/><path d="m228.296875 71.042969c-19.585937 0-35.515625-15.933594-35.515625-35.515625 0-19.582032 15.929688-35.5195315 35.515625-35.5195315 19.582031 0 35.515625 15.9335935 35.515625 35.5195315 0 19.582031-15.933594 35.515625-35.515625 35.515625zm0-56.035157c-11.3125 0-20.519531 9.203126-20.519531 20.519532 0 11.3125 9.207031 20.515625 20.519531 20.515625s20.519531-9.203125 20.519531-20.515625-9.207031-20.519532-20.519531-20.519532zm0 0"/><path d="m154.652344 71.042969c-16.878906.003906-31.886719-12.101563-34.949219-29.285157-1.664063-9.335937.40625-18.765624 5.832031-26.546874 5.425782-7.785157 13.558594-12.984376 22.898438-14.652344 9.339844-1.660156 18.769531.40625 26.550781 5.835937 7.78125 5.425781 12.984375 13.558594 14.648437 22.898438 3.4375 19.277343-9.453124 37.761719-28.730468 41.199219-2.101563.371093-4.191406.550781-6.25.550781zm.058594-56.039063c-1.210938 0-2.429688.105469-3.644532.324219-5.394531.960937-10.09375 3.964844-13.230468 8.460937-3.132813 4.496094-4.332032 9.941407-3.367188 15.335938 1.984375 11.140625 12.664062 18.585938 23.800781 16.597656 11.136719-1.984375 18.582031-12.660156 16.597657-23.796875-.964844-5.398437-3.96875-10.09375-8.464844-13.230469-3.480469-2.429687-7.535156-3.691406-11.691406-3.691406zm0 0"/><path d="m84.242188 99.058594c-19.585938 0-35.515626-15.933594-35.515626-35.515625 0-19.585938 15.933594-35.515625 35.515626-35.515625 19.582031 0 35.515624 15.933594 35.515624 35.515625s-15.933593 35.515625-35.515624 35.515625zm0-56.035156c-11.316407 0-20.519532 9.207031-20.519532 20.519531s9.207032 20.515625 20.519532 20.515625 20.515624-9.203125 20.515624-20.515625-9.203124-20.519531-20.515624-20.519531zm0 0"/><path d="m31.859375 144.738281c-17.566406 0-31.859375-14.292969-31.859375-31.859375 0-17.570312 14.292969-31.863281 31.859375-31.863281 17.570313 0 31.863281 14.292969 31.863281 31.863281 0 17.566406-14.292968 31.859375-31.863281 31.859375zm0-48.722656c-9.296875 0-16.859375 7.5625-16.859375 16.863281 0 9.296875 7.5625 16.863282 16.859375 16.863282 9.300781 0 16.863281-7.566407 16.863281-16.863282 0-9.300781-7.5625-16.863281-16.863281-16.863281zm0 0"/></svg>