<?xml version="1.0" encoding="iso-8859-1"?>
<!-- Generator: Adobe Illustrator 21.0.0, SVG Export Plug-In . SVG Version: 6.00 Build 0)  -->
<svg version="1.1" id="Capa_1" fill="#364248" xmlns="http://www.w3.org/2000/svg" xmlns:xlink="http://www.w3.org/1999/xlink" x="0px" y="0px"
	 viewBox="0 0 512 512" style="enable-background:new 0 0 512 512;" xml:space="preserve">
<g>
	<g>
		<path d="M436.309,109.958H44.575C19.994,109.958,0,129.952,0,154.533V323.34c0,19.041,15.497,34.538,34.538,34.538h28.656
			c6.446,44.017,62.01,59.726,90.646,25.806c6.233-7.377,10.238-16.341,11.633-25.806h181.042
			c3.664,24.953,25.203,44.164,51.15,44.164s47.486-19.211,51.15-44.164h28.646c19.041,0,34.538-15.497,34.538-34.538V185.649
			C512,143.914,478.044,109.958,436.309,109.958z M15.056,288.31h25.856c1.545,0,2.8,1.257,2.8,2.8v18.82c0,1.544-1.256,2.8-2.8,2.8
			H15.056V288.31z M433.519,357.878c-3.483,16.602-18.228,29.108-35.853,29.108c-23.031,0-40.611-21.185-35.863-44.164
			c3.483-16.602,18.238-29.108,35.863-29.108C420.735,313.714,438.34,335.004,433.519,357.878z M496.944,312.73h-14.755
			c-1.545,0-2.8-1.257-2.8-2.8v-18.82c0-1.544,1.256-2.8,2.8-2.8h14.755V312.73z M496.944,273.254h-14.755
			c-9.846,0-17.856,8.01-17.856,17.856v18.82c0,9.847,8.01,17.856,17.856,17.856h14.223c-2.021,8.602-9.742,15.035-18.95,15.035
			h-28.646c-3.664-24.953-25.204-44.164-51.15-44.164c-25.946,0-47.486,19.211-51.15,44.164H165.464
			c-0.753-5.139-2.278-10.158-4.507-14.815c-1.797-3.754-6.283-5.34-10.037-3.543c-3.754,1.797-5.34,6.293-3.543,10.037
			c6.185,12.91,4.288,28.4-5.049,39.477c-21.863,25.921-64.63,10.564-64.63-23.648c0-27.131,28.323-44.478,52.314-33.103
			c3.754,1.777,8.241,0.171,10.027-3.583c1.777-3.754,0.181-8.241-3.583-10.027c-30.898-14.633-68.139,4.451-73.262,39.206H34.538
			c-9.208,0-16.93-6.434-18.95-15.035h25.324c9.846,0,17.856-8.01,17.856-17.856v-18.82c0-9.846-8.01-17.856-17.856-17.856H15.056
			V154.533c0-16.28,13.239-29.52,29.52-29.52h391.734c33.434,0,60.635,27.201,60.635,60.635V273.254z"/>
	</g>
</g>
<g>
	<g>
		<path d="M114.334,324.252c-14.389,0-26.097,11.706-26.097,26.097c0,14.39,11.707,26.097,26.097,26.097
			s26.097-11.706,26.097-26.097C140.431,335.959,128.724,324.252,114.334,324.252z M114.334,361.39
			c-6.088,0-11.041-4.953-11.041-11.041s4.953-11.041,11.041-11.041s11.041,4.953,11.041,11.041S120.422,361.39,114.334,361.39z"/>
	</g>
</g>
<g>
	<g>
		<path d="M397.666,324.252c-14.389,0-26.097,11.706-26.097,26.097c0,14.39,11.707,26.097,26.097,26.097
			s26.097-11.706,26.097-26.097C423.763,335.959,412.056,324.252,397.666,324.252z M397.666,361.39
			c-6.088,0-11.041-4.953-11.041-11.041s4.953-11.041,11.041-11.041s11.041,4.953,11.041,11.041S403.754,361.39,397.666,361.39z"/>
	</g>
</g>
<g>
	<g>
		<path d="M365.34,140.341H88.661c-4.157,0-7.528,3.37-7.528,7.528c0,4.158,3.37,7.528,7.528,7.528h23.075v83.309H43.144
			c-1.008,0-1.827-0.819-1.827-1.827v-79.655c0-1.008,0.819-1.827,1.827-1.827h15.405c4.157,0,7.528-3.37,7.528-7.528
			c0-4.158-3.37-7.528-7.528-7.528H43.144c-9.31,0-16.883,7.574-16.883,16.883v79.655c0,9.309,7.573,16.883,16.883,16.883H365.34
			c9.31,0,16.883-7.574,16.883-16.883v-79.655C382.222,147.915,374.648,140.341,365.34,140.341z M126.791,238.706v-83.309h69.922
			v83.309H126.791z M281.692,238.706H211.77v-83.309h69.922V238.706z M367.167,236.879c0,1.008-0.819,1.827-1.827,1.827h-68.592
			v-83.309h68.592c1.008,0,1.827,0.819,1.827,1.827V236.879z"/>
	</g>
</g>
<g>
	<g>
		<path d="M435.566,140.05H401.54c-4.157,0-7.528,3.369-7.528,7.528v14.45c0,4.158,3.371,7.528,7.528,7.528s7.528-3.37,7.528-7.528
			v-6.922h26.498c19.316,0,35.03,15.718,35.03,35.04v48.56h-52.495c-4.98,0-9.034-4.052-9.034-9.034v-37.533
			c0-4.158-3.371-7.528-7.528-7.528s-7.528,3.37-7.528,7.528v37.533c0,13.282,10.806,24.089,24.089,24.089h60.023
			c4.157,0,7.528-3.37,7.528-7.528v-56.088C485.652,162.523,463.184,140.05,435.566,140.05z"/>
	</g>
</g>
<g>
	<g>
		<path d="M87.356,164.125c-2.94-2.939-7.707-2.939-10.646,0l-16.561,16.561c-2.94,2.941-2.94,7.707,0,10.646
			c2.941,2.94,7.707,2.939,10.646,0l16.561-16.561C90.297,171.832,90.297,167.065,87.356,164.125z"/>
	</g>
</g>
<g>
	<g>
		<path d="M83.773,202.268c-2.94-2.94-7.707-2.94-10.646-0.001l-16.561,16.561c-4.756,4.757-1.324,12.852,5.323,12.852
			c5.375,0,6.487-4.288,21.884-18.766C86.713,209.973,86.713,205.208,83.773,202.268z"/>
	</g>
</g>
<g>
	<g>
		<path d="M184.54,159.842c-2.94-2.942-7.707-2.943-10.646-0.003l-28.997,28.983c-2.941,2.94-2.942,7.706-0.003,10.646
			c2.937,2.938,7.705,2.944,10.647,0.003l28.997-28.983C187.478,167.548,187.479,162.782,184.54,159.842z"/>
	</g>
</g>
<g>
	<g>
		<path d="M173.052,204.999c-2.939-2.939-7.706-2.939-10.646-0.001l-11.099,11.099c-4.756,4.757-1.324,12.852,5.323,12.852
			c5.159,0,6.241-3.96,16.422-13.303C175.992,212.704,175.992,207.939,173.052,204.999z"/>
	</g>
</g>
<g>
	<g>
		<path d="M270.233,190.731c-2.94-2.942-7.706-2.943-10.646-0.003L230.59,219.71c-4.759,4.757-1.325,12.852,5.322,12.852
			c5.536,0,5.032-2.99,34.318-31.186C273.171,198.436,273.172,193.671,270.233,190.731z"/>
	</g>
</g>
<g>
	<g>
		<path d="M461.597,190.51c-2.94-2.942-7.707-2.943-10.646-0.003l-28.997,28.983c-4.758,4.756-1.325,12.852,5.322,12.852
			c5.536,0,5.032-2.99,34.318-31.186C464.535,198.216,464.536,193.45,461.597,190.51z"/>
	</g>
</g>
<g>
	<g>
		<path d="M361.195,157.917c-2.94-2.942-7.707-2.943-10.647-0.004l-28.997,28.983c-4.759,4.757-1.325,12.853,5.322,12.853
			c5.536,0,5.032-2.99,34.318-31.186C364.133,165.623,364.134,160.857,361.195,157.917z"/>
	</g>
</g>
<g>
	<g>
		<path d="M355.785,196.059c-2.941-2.943-7.708-2.942-10.646-0.004l-28.997,28.983c-4.759,4.757-1.325,12.853,5.322,12.853
			c5.537,0,5.04-2.997,34.318-31.186C358.723,203.764,358.724,198.998,355.785,196.059z"/>
	</g>
</g>
<g>
	<g>
		<path d="M263.818,163.454c-2.94-2.939-7.707-2.939-10.646,0l-11.099,11.099c-2.94,2.941-2.94,7.707,0,10.647
			c2.941,2.94,7.707,2.939,10.645,0l11.099-11.099C266.758,171.159,266.758,166.393,263.818,163.454z"/>
	</g>
</g>
<g>
	<g>
		<path d="M438.148,163.455c-2.94-2.94-7.707-2.94-10.646-0.001l-11.099,11.099c-4.756,4.757-1.324,12.852,5.323,12.852
			c5.159,0,6.241-3.96,16.422-13.303C441.088,171.16,441.088,166.394,438.148,163.455z"/>
	</g>
</g>
<g>
</g>
<g>
</g>
<g>
</g>
<g>
</g>
<g>
</g>
<g>
</g>
<g>
</g>
<g>
</g>
<g>
</g>
<g>
</g>
<g>
</g>
<g>
</g>
<g>
</g>
<g>
</g>
<g>
</g>
</svg>
